# xmcd
#
# Track frame offsets:
#	150
#	24422
#	37085
#	51242
#	78825
#	92907
#	110732
#	127682
#	141472
#	161842
#	181947
#	242864
#
# Disc length: 3340 seconds
#
# Revision: 0
# Processed by: cddbd v1.5.2PL0 Copyright (c) Steve Scherf et al.
# Submitted via: EasyCDDAExtractor 9.1.3.1
#
DISCID=a20d0a0c
DTITLE=Stevie Ray Vaughan and Double Trouble - Soul To Soul
DYEAR=1985
DGENRE=R&B
TTITLE0=Say What!
TTITLE1=Lookin' Out The Window
TTITLE2=Look At Little Sister
TTITLE3=Ain't Gone 'N' Give Up On Love
TTITLE4=Gone Home
TTITLE5=Change It
TTITLE6=You'll Be Mine
TTITLE7=Empty Arms
TTITLE8=Come On, Pt. 3
TTITLE9=Life Without You
TTITLE10=Little Wing/Third Stone From The Sun
TTITLE11=Slip Slidin' Slim
EXTD=
EXTT0=
EXTT1=
EXTT2=
EXTT3=
EXTT4=
EXTT5=
EXTT6=
EXTT7=
EXTT8=
EXTT9=
EXTT10=
EXTT11=
PLAYORDER=
